<svg width="120" height="32" viewBox="0 0 120 32" fill="none" xmlns="http://www.w3.org/2000/svg">
<path fill-rule="evenodd" clip-rule="evenodd" d="M22.8937 10.1158L20.3263 16.9229H28.5013L27.2225 20.3265H12.8221C12.646 20.3227 12.4735 20.2761 12.3197 20.1908C12.166 20.1055 12.0358 19.9841 11.9405 19.8373C11.8452 19.6906 11.7877 19.5228 11.7732 19.3489C11.7586 19.175 11.7874 19.0002 11.8569 18.8398L15.5391 8.8012C15.7086 8.22094 16.069 7.71341 16.563 7.35919C17.057 7.00498 17.6562 6.82437 18.2657 6.84606H39.2148L41.7725 0.0102257H21.9864C12.2913 -0.329176 8.99037 7.89294 8.99037 7.89294L5.15864 18.3331C2.55267 27.2579 11.0028 27.1719 11.0028 27.1719H31.725L37.9986 10.1158H22.8937Z" fill="white"/>
<path fill-rule="evenodd" clip-rule="evenodd" d="M120 0.0102257H106.68L96.1937 7.20458L91.4451 0.0102257H78.5552L87.3189 13.2899L67.0745 27.1719H80.3938L91.4692 19.576L96.4881 27.1719H109.378L100.344 13.4907L120 0.0102257Z" fill="white"/>
<path fill-rule="evenodd" clip-rule="evenodd" d="M77.2425 0.0102257H42.9741L40.3971 6.89386H53.0457L45.6718 27.1719H54.4741L61.848 6.89386H74.6704L77.2425 0.0102257Z" fill="white"/>
<path fill-rule="evenodd" clip-rule="evenodd" d="M30.2196 32H0L1.28851 28.3861H31.5081L30.2196 32Z" fill="#54A243"/>
<path fill-rule="evenodd" clip-rule="evenodd" d="M65.5011 32H30.2192L31.5077 28.3861H66.7896L65.5011 32Z" fill="#E5E5E5"/>
<path fill-rule="evenodd" clip-rule="evenodd" d="M108.972 32H65.501L66.7895 28.3861H110.261L108.972 32Z" fill="#DB1F1F"/>
</svg>
