<svg width="72" height="24" viewBox="0 0 72 24" fill="none" xmlns="http://www.w3.org/2000/svg">
<path fill-rule="evenodd" clip-rule="evenodd" d="M13.7363 7.58684L12.1959 12.6922H17.1009L16.3336 15.2449H7.69336C7.58767 15.242 7.48417 15.2071 7.39194 15.1431C7.29971 15.0791 7.22158 14.9881 7.1644 14.878C7.10722 14.7679 7.07274 14.6421 7.064 14.5117C7.05526 14.3812 7.07252 14.2501 7.11426 14.1299L9.32354 6.6009C9.42526 6.1657 9.64149 5.78506 9.93788 5.5194C10.2343 5.25373 10.5938 5.11828 10.9595 5.13454H23.5289L25.0636 0.00766931H13.192C7.37486 -0.246882 5.39432 5.91971 5.39432 5.91971L3.09528 13.7498C1.5317 20.4435 6.60175 20.3789 6.60175 20.3789H19.0351L22.7993 7.58684H13.7363Z" fill="white"/>
<path fill-rule="evenodd" clip-rule="evenodd" d="M71.9999 0.00766931H64.0083L57.7163 5.40343L54.8671 0.00766931H47.1332L52.3915 9.96743L40.2448 20.3789H48.2364L54.8816 14.682L57.893 20.3789H65.6269L60.2065 10.118L71.9999 0.00766931Z" fill="white"/>
<path fill-rule="evenodd" clip-rule="evenodd" d="M46.3456 0.00766931H25.7846L24.2383 5.17039H31.8275L27.4032 20.3789H32.6846L37.1089 5.17039H44.8023L46.3456 0.00766931Z" fill="white"/>
<path fill-rule="evenodd" clip-rule="evenodd" d="M18.1317 24H0L0.773103 21.2895H18.9048L18.1317 24Z" fill="#54A243"/>
<path fill-rule="evenodd" clip-rule="evenodd" d="M39.3008 24H18.1317L18.9048 21.2896H40.0739L39.3008 24Z" fill="#E5E5E5"/>
<path fill-rule="evenodd" clip-rule="evenodd" d="M65.3836 24H39.3008L40.0739 21.2896H66.1567L65.3836 24Z" fill="#DB1F1F"/>
</svg>
