<?xml version="1.0" encoding="utf-8"?>
<svg version="1.1" xmlns="http://www.w3.org/2000/svg" xmlns:xlink="http://www.w3.org/1999/xlink" width="752" height="60" viewBox="0 0 752 32">
  <svg width="42" height="34" viewBox="0 0 42 34" fill="none" xmlns="http://www.w3.org/2000/svg">
    <path d="M29.4 0.375C27.8558 0.375 26.6 1.64418 26.6 3.20476V3.71628L10.2397 10.3295C9.97439 10.4378 9.80008 10.6974 9.80008 10.9867V20.891C9.80008 21.1803 9.97439 21.44 10.2397 21.5475L26.6 28.1607V28.6729C26.6 30.2336 27.8559 31.5027 29.4 31.5027C30.9442 31.5027 32.2 30.2335 32.2 28.6729V3.20476C32.2 1.64409 30.9442 0.375 29.4 0.375ZM30.8 28.6728C30.8 29.4531 30.1722 30.0878 29.4 30.0878C28.6278 30.0878 28 29.4532 28 28.6728V27.6824C28 27.3923 27.8257 27.1327 27.5597 27.0252L11.2 20.412V11.4656L27.5597 4.85239C27.8257 4.74412 28 4.48455 28 4.19521V3.20476C28 2.42447 28.6278 1.78984 29.4 1.78984C30.1722 1.78984 30.8 2.42438 30.8 3.20476V28.6728Z" fill="black"/>
    <path d="M10.5 10.2792H5.60001C2.51228 10.2792 0 12.8182 0 15.9388C0 19.0594 2.51228 21.5984 5.60001 21.5984H10.5C10.8863 21.5984 11.1999 21.2822 11.1999 20.891V10.9867C11.1999 10.5961 10.8863 10.2792 10.5 10.2792ZM9.80001 20.1835H5.60001C3.2837 20.1835 1.40002 18.2798 1.40002 15.9388C1.40002 13.5978 3.2837 11.6941 5.60001 11.6941H9.80001V20.1835Z" fill="black"/>
    <path d="M35.9212 13.1451L31.7212 11.7302C31.5071 11.6587 31.2739 11.6948 31.0905 11.8278C30.9078 11.9608 30.8 12.1745 30.8 12.4016V19.4761C30.8 19.7031 30.9078 19.9168 31.0905 20.0505C31.2116 20.1382 31.3551 20.1835 31.5 20.1835C31.5742 20.1835 31.6491 20.1714 31.7212 20.1467L35.9212 18.7317C36.2075 18.6362 36.4 18.366 36.4 18.0611V13.8164C36.4 13.5115 36.2075 13.242 35.9212 13.1451ZM35 17.551L32.2001 18.4941V13.3828L35 14.3258V17.551Z" fill="black"/>
    <path d="M13.9349 29.729L13.2322 29.018L11.1791 20.7197C11.1014 20.4049 10.8214 20.1835 10.5001 20.1835H4.90002C4.68584 20.1835 4.48421 20.2825 4.35124 20.4509C4.21826 20.6207 4.16921 20.8421 4.21826 21.053L7.01823 33.0796C7.09452 33.4043 7.38081 33.625 7.69933 33.625C7.74347 33.625 7.78752 33.6208 7.83231 33.6116L13.0893 32.5858C13.0962 32.5844 13.1033 32.583 13.1103 32.5816C13.4183 32.5115 13.6997 32.3559 13.9237 32.1331C14.2429 31.814 14.42 31.3895 14.4228 30.9354C14.4256 30.4818 14.2535 30.0545 13.9349 29.729ZM12.9402 31.1255C12.9045 31.1616 12.8597 31.1864 12.8107 31.1991L8.22778 32.094L5.78407 21.5983H9.9533L11.9217 29.5514C11.9525 29.676 12.0162 29.7899 12.1058 29.8804L12.943 30.7265C13.0137 30.798 13.0235 30.8821 13.0235 30.9267C13.0228 30.9699 13.0117 31.0541 12.9402 31.1255Z" fill="black"/>
    <path d="M42 15.2314H37.8V16.6463H42V15.2314Z" fill="black"/>
    <path d="M40.938 6.84437L37.4384 8.96712L38.1588 10.1802L41.6584 8.05745L40.938 6.84437Z" fill="black"/>
    <path d="M38.1649 21.6988L37.4446 22.9121L40.9447 25.0345L41.665 23.8212L38.1649 21.6988Z" fill="black"/>
    <path d="M28 3.91218H26.5999V27.9653H28V3.91218Z" fill="black"/>
    <path d="M8.40002 13.109H6.99999V15.9388H8.40002V13.109Z" fill="black"/>
    <path d="M5.59991 13.109H4.19989V15.9388H5.59991V13.109Z" fill="black"/>
  </svg>
  <svg width="42" height="42" viewBox="0 0 42 42" fill="none" x="60" y="0" xmlns="http://www.w3.org/2000/svg">
    <path fill-rule="evenodd" clip-rule="evenodd" d="M38.14 13.6735C38.1418 13.6806 38.1436 13.6878 38.147 13.6948C39.7758 16.4668 40.7126 19.677 40.7126 23.1C40.7126 26.523 39.7758 29.7332 38.1463 32.5052C38.143 32.5119 38.1414 32.5188 38.1397 32.5258C38.1389 32.5294 38.138 32.5332 38.1369 32.5369C38.1355 32.5413 38.1338 32.5457 38.1313 32.55C38.1241 32.5624 38.1152 32.5726 38.1063 32.5828L38.1018 32.588L38.0946 32.5965L38.091 32.6012L38.0885 32.6046C36.4054 35.4298 33.9974 37.7895 31.1157 39.4373C31.1094 39.4415 31.1043 39.4467 31.0993 39.4519C31.0935 39.4577 31.0877 39.4636 31.0801 39.4681C31.0772 39.4698 31.0742 39.4714 31.0713 39.4728L31.0676 39.4746C31.0662 39.4752 31.0634 39.4764 31.0634 39.4764C31.0555 39.4798 31.0475 39.4826 31.0394 39.4854C31.0306 39.4885 31.0216 39.4916 31.013 39.4954C28.229 41.0648 25.0113 41.9734 21.5817 41.9965C21.5759 41.9965 21.571 42 21.5652 42C21.5632 42 21.5613 41.9994 21.5593 41.9987C21.5572 41.998 21.555 41.9972 21.5524 41.9972L21.5441 41.9974L21.5308 41.9978L21.5112 41.9985C21.4907 41.9992 21.4698 42 21.4489 42C20.0056 42 18.5508 41.8376 17.1268 41.5156C16.7429 41.4295 16.5025 41.0536 16.5909 40.677C16.6787 40.3004 17.0618 40.061 17.4457 40.1513C18.5708 40.4047 19.7138 40.5447 20.8532 40.5832V39.2C20.8532 38.8129 21.1721 38.5 21.5667 38.5C21.9612 38.5 22.2801 38.8129 22.2801 39.2V40.5776C24.9635 40.4565 27.492 39.7495 29.7402 38.5861L29.0367 37.3912C28.8391 37.0566 28.9561 36.6282 29.2978 36.435C29.6374 36.2411 30.0748 36.3552 30.2724 36.6912L30.9738 37.8833C33.2062 36.4938 35.1026 34.6332 36.5188 32.4429L35.3038 31.7548C34.9628 31.5616 34.8458 31.1339 35.0427 30.7986C35.2396 30.4626 35.6762 30.3492 36.0173 30.5424L37.2352 31.2326C38.4374 28.9954 39.1601 26.474 39.2678 23.7993H37.8587C37.4642 23.7993 37.1453 23.4864 37.1453 23.0993C37.1453 22.7122 37.4642 22.3993 37.8587 22.3993H39.2678C39.1601 19.7246 38.4374 17.2032 37.2352 14.966L36.0173 15.6562C35.9053 15.7199 35.7825 15.75 35.6613 15.75C35.4144 15.75 35.1754 15.6247 35.0427 15.4C34.845 15.0647 34.9621 14.637 35.3024 14.4438L36.5174 13.7557C35.1012 11.5654 33.2048 9.7048 30.9723 8.3153L30.271 9.5074C30.139 9.7321 29.8993 9.8574 29.6524 9.8574C29.5311 9.8574 29.4084 9.8273 29.2964 9.7636C28.9554 9.5704 28.8383 9.1427 29.0353 8.8074L29.7387 7.6125C27.4906 6.4491 24.9621 5.7421 22.2787 5.621V7C22.2787 7.3871 21.9598 7.7 21.5652 7.7C21.1707 7.7 20.8518 7.3871 20.8518 7V5.6161C20.642 5.6259 20.4265 5.6385 20.1925 5.656L19.427 5.7141C18.7627 5.789 18.0999 5.9003 17.4435 6.048C17.0597 6.1355 16.6766 5.8989 16.5888 5.5223C16.5003 5.1457 16.7408 4.7698 17.1246 4.6837C17.8852 4.5129 18.6543 4.3897 19.4248 4.3092V3.5H18.3546C17.3708 3.5 16.571 2.7153 16.571 1.75C16.571 0.7847 17.3708 0 18.3546 0H24.7759C25.7597 0 26.5602 0.7847 26.5602 1.75C26.5602 2.7153 25.7604 3.5 24.7766 3.5H23.7064V4.3337C26.3498 4.6382 28.8291 5.4691 31.0358 6.7165C31.043 6.7202 31.0504 6.72196 31.0578 6.72372C31.0657 6.72563 31.0737 6.72754 31.0815 6.7319C31.0891 6.73638 31.0949 6.74225 31.1007 6.74814C31.1058 6.75329 31.1108 6.75845 31.1172 6.7627C32.355 7.4704 33.5051 8.3083 34.5482 9.2589L36.0808 7.756L35.0712 6.7655L38.0985 3.7961L41.125 6.7655L38.0985 9.7356L37.0896 8.7458L35.5571 10.2487C36.526 11.2721 37.3793 12.4012 38.1006 13.615C38.1026 13.6179 38.1049 13.6205 38.1072 13.623L38.1102 13.6261L38.1154 13.6311L38.1218 13.6373C38.1255 13.6411 38.1291 13.6452 38.132 13.65C38.134 13.6538 38.1356 13.6577 38.1368 13.6616C38.138 13.6655 38.139 13.6695 38.14 13.6735ZM39.1066 6.7655L38.0977 5.7757L37.0882 6.7655L38.0977 7.756L39.1066 6.7655ZM20.8518 2.1V4.2147C20.9031 4.2126 20.9517 4.21201 21.0001 4.21142C21.0325 4.21103 21.0648 4.21064 21.0979 4.2098C21.1472 4.20892 21.1965 4.20704 21.2457 4.20516C21.3135 4.20258 21.3812 4.2 21.4489 4.2C21.4579 4.2 21.4668 4.20035 21.4757 4.2007C21.4846 4.20105 21.4935 4.2014 21.5025 4.2014C21.5124 4.2014 21.5231 4.20105 21.5339 4.2007L21.5409 4.20047L21.5542 4.20012L21.5652 4.2C21.7936 4.2 22.0304 4.2049 22.2787 4.2147V2.1H24.7759C24.9721 2.1 25.1326 1.9425 25.1326 1.75C25.1326 1.5575 24.9721 1.4 24.7759 1.4H18.3546C18.1584 1.4 17.9979 1.5575 17.9979 1.75C17.9979 1.9425 18.1584 2.1 18.3546 2.1H20.8518Z" fill="black"/>
    <path fill-rule="evenodd" clip-rule="evenodd" d="M24.0247 25.571C23.5853 26.1639 22.9082 26.5356 22.1654 26.5923C22.0984 26.5972 22.032 26.6 21.9657 26.6C21.2943 26.6 20.6486 26.3396 20.1699 25.8692C19.644 25.3533 19.3751 24.64 19.4329 23.9113C19.4907 23.1826 19.8695 22.5183 20.4717 22.0885L29.7082 15.5323C29.9915 15.3321 30.3825 15.3622 30.6308 15.6051C30.879 15.8487 30.9097 16.2323 30.705 16.5102L24.0247 25.571ZM21.31 23.2211C21.0474 23.4087 20.8805 23.7006 20.8555 24.0205C20.8298 24.3397 20.9483 24.6533 21.178 24.8794C21.4099 25.1069 21.7288 25.2175 22.0534 25.1965C22.3795 25.1713 22.677 25.0082 22.8696 24.7485L26.9443 19.222L21.31 23.2211Z" fill="black"/>
    <path d="M15.1442 9.79999H11.5768C11.1823 9.79999 10.8634 10.1129 10.8634 10.5C10.8634 10.8871 11.1823 11.2 11.5768 11.2H15.1442C15.5387 11.2 15.8577 10.8871 15.8577 10.5C15.8577 10.1129 15.5387 9.79999 15.1442 9.79999Z" fill="black"/>
    <path d="M8.00924 14.7H15.1439C15.5385 14.7 15.8574 15.0129 15.8574 15.4C15.8574 15.7871 15.5385 16.1 15.1439 16.1H8.00924C7.61469 16.1 7.29577 15.7871 7.29577 15.4C7.29577 15.0129 7.61469 14.7 8.00924 14.7Z" fill="black"/>
    <path d="M15.1444 19.6H4.44239C4.04785 19.6 3.72893 19.9129 3.72893 20.3C3.72893 20.6871 4.04785 21 4.44239 21H15.1444C15.539 21 15.8579 20.6871 15.8579 20.3C15.8579 19.9129 15.539 19.6 15.1444 19.6Z" fill="black"/>
    <path d="M1.58847 24.5H15.1444C15.5389 24.5 15.8579 24.8129 15.8579 25.2C15.8579 25.5871 15.5389 25.9 15.1444 25.9H1.58847C1.19392 25.9 0.875 25.5871 0.875 25.2C0.875 24.8129 1.19392 24.5 1.58847 24.5Z" fill="black"/>
    <path d="M15.1441 29.4H5.86898C5.47444 29.4 5.15552 29.7129 5.15552 30.1C5.15552 30.4871 5.47444 30.8 5.86898 30.8H15.1441C15.5386 30.8 15.8576 30.4871 15.8576 30.1C15.8576 29.7129 15.5386 29.4 15.1441 29.4Z" fill="black"/>
    <path d="M10.1495 34.3H15.1438C15.5383 34.3 15.8573 34.6129 15.8573 35C15.8573 35.3871 15.5383 35.7 15.1438 35.7H10.1495C9.75495 35.7 9.43603 35.3871 9.43603 35C9.43603 34.6129 9.75495 34.3 10.1495 34.3Z" fill="black"/>
  </svg>
  <svg width="42" height="43" viewBox="0 0 42 43" fill="none" x="120" y="0" xmlns="http://www.w3.org/2000/svg">
    <path d="M40.9757 38.0641H37.3583V14.8747C37.3583 14.3074 36.8987 13.8459 36.3339 13.8459H33.9968C33.6573 13.8459 33.3822 14.1222 33.3822 14.4631C33.3822 14.8041 33.6573 15.0804 33.9968 15.0804H36.1291V38.0641H30.2912V15.0804H31.1068C31.4463 15.0804 31.7214 14.8041 31.7214 14.4631C31.7214 14.1222 31.4463 13.8459 31.1068 13.8459H30.0864C29.5216 13.8459 29.062 14.3074 29.062 14.8747V38.0642H25.1482V22.6891C25.1482 22.1219 24.6887 21.6604 24.1239 21.6604H17.8763C17.3115 21.6604 16.8519 22.1219 16.8519 22.6891V38.0641H12.938V29.4399C12.938 28.8727 12.4785 28.4112 11.9137 28.4112H5.66614C5.10136 28.4112 4.64182 28.8727 4.64182 29.4399V32.2002C4.64182 32.5411 4.91695 32.8174 5.2564 32.8174C5.59584 32.8174 5.87098 32.5411 5.87098 32.2002V29.6457H11.7088V38.0642H5.87098V35.0705C5.87098 34.7296 5.59584 34.4533 5.2564 34.4533C4.91695 34.4533 4.64182 34.7296 4.64182 35.0705V38.0642H1.02432C0.459539 38.0641 0 38.5256 0 39.0929V41.0612C0 41.6284 0.459539 42.0899 1.02432 42.0899H40.9757C41.5405 42.0899 42 41.6284 42 41.0612V39.0929C42 38.5256 41.5405 38.0641 40.9757 38.0641ZM18.0811 22.8949H23.919V38.0642H18.0811V22.8949ZM40.7708 40.8555H1.22924V39.2987H40.7708L40.7708 40.8555Z" fill="black"/>
    <path d="M5.10613 22.6925L4.75454 24.7512C4.65652 25.3252 4.88711 25.8944 5.35624 26.2367C5.62137 26.4302 5.93153 26.5285 6.24374 26.5285C6.48409 26.5285 6.72567 26.4702 6.94896 26.3524L8.78982 25.3804L10.6307 26.3524C11.1439 26.6234 11.7541 26.579 12.2234 26.2368C12.6925 25.8944 12.9231 25.3252 12.8251 24.7512L12.4735 22.6925L13.9628 21.2345C14.378 20.8281 14.5247 20.2314 14.3456 19.6776C14.1663 19.1236 13.6986 18.7275 13.1247 18.6437L11.0665 18.3433L10.1461 16.4703C9.88945 15.948 9.36979 15.6237 8.78982 15.6237C8.20995 15.6237 7.69028 15.9481 7.43368 16.4703L6.51329 18.3433L4.45505 18.6437C3.88116 18.7275 3.41342 19.1235 3.23418 19.6776C3.05502 20.2315 3.20161 20.8281 3.61685 21.2345L5.10613 22.6925ZM4.4032 20.059C4.41961 20.0084 4.47457 19.8884 4.63183 19.8654L6.784 19.5513C7.12549 19.5016 7.42056 19.2862 7.57338 18.9754L8.53594 17.0167C8.60624 16.8736 8.73691 16.8581 8.78982 16.8581C8.84274 16.8581 8.97341 16.8735 9.04379 17.0167L10.0063 18.9753C10.1591 19.2862 10.4542 19.5015 10.7956 19.5513L12.9479 19.8654C13.1052 19.8884 13.1601 20.0084 13.1765 20.059C13.1929 20.1096 13.2187 20.2392 13.1048 20.3505L11.5476 21.8751C11.3003 22.1169 11.1876 22.4654 11.246 22.8069L11.6137 24.9598C11.6405 25.1171 11.5438 25.2068 11.501 25.238C11.4581 25.2692 11.3432 25.334 11.2028 25.2596L9.27767 24.2431C9.12492 24.1625 8.95733 24.1222 8.78982 24.1222C8.62232 24.1222 8.45473 24.1625 8.30198 24.2431L6.37688 25.2596C6.23619 25.3339 6.12151 25.2692 6.07869 25.238C6.03587 25.2067 5.93916 25.1171 5.96598 24.9598L6.33364 22.807C6.39205 22.4654 6.27926 22.117 6.03226 21.8752L4.47482 20.3506C4.36104 20.2392 4.3868 20.1096 4.4032 20.059Z" fill="black"/>
    <path d="M17.3162 15.1826L16.9646 17.2414C16.8666 17.8154 17.0971 18.3845 17.5663 18.7269C17.8314 18.9203 18.1415 19.0186 18.4538 19.0186C18.6942 19.0186 18.9358 18.9603 19.159 18.8425L20.9999 17.8706L22.8408 18.8425C23.354 19.1136 23.9644 19.0692 24.4337 18.7269C24.9028 18.3845 25.1333 17.8153 25.0353 17.2414L24.6836 15.1826L26.173 13.7247C26.5882 13.3182 26.7348 12.7216 26.5556 12.1677C26.3765 11.6137 25.9087 11.2177 25.3347 11.1339L23.2766 10.8336L22.3561 8.96047C22.0995 8.43824 21.5798 8.11381 20.9999 8.11381C20.42 8.11381 19.9004 8.43824 19.6437 8.96047L18.7233 10.8336L16.6651 11.1339C16.0912 11.2177 15.6234 11.6137 15.4442 12.1677C15.2649 12.7215 15.4115 13.3182 15.8269 13.7247L17.3162 15.1826ZM16.6132 12.5491C16.6296 12.4985 16.6846 12.3786 16.8418 12.3556L18.9943 12.0415C19.3357 11.9915 19.6306 11.7764 19.7834 11.4656L20.7459 9.50684C20.8162 9.36374 20.9469 9.34833 20.9998 9.34833C21.0527 9.34833 21.1834 9.36374 21.2537 9.50684L22.2164 11.4659C22.3691 11.7764 22.6641 11.9915 23.0056 12.0415L25.1579 12.3556C25.3152 12.3786 25.3701 12.4987 25.3865 12.5492C25.4029 12.5998 25.4286 12.7293 25.3148 12.8407L23.7574 14.3654C23.5104 14.6072 23.3978 14.9555 23.456 15.2971L23.8237 17.45C23.8505 17.6073 23.7538 17.6969 23.711 17.7281C23.6681 17.7593 23.5533 17.8242 23.4127 17.7497L21.4877 16.7333C21.335 16.6527 21.1674 16.6123 20.9998 16.6123C20.8323 16.6123 20.6647 16.6527 20.512 16.7332L18.5869 17.7497C18.4461 17.8241 18.3314 17.7593 18.2887 17.7281C18.2459 17.6969 18.1492 17.6073 18.1761 17.45L18.5437 15.2971C18.6021 14.9556 18.4894 14.6073 18.2423 14.3653L16.6848 12.8408C16.5711 12.7293 16.5969 12.5998 16.6132 12.5491Z" fill="black"/>
    <path d="M29.5263 7.15871L29.1747 9.2174C29.0766 9.79137 29.3072 10.3606 29.7763 10.703C30.2456 11.0453 30.8557 11.0895 31.3691 10.8186L33.21 9.84665L35.0509 10.8186C35.2742 10.9364 35.5157 10.9947 35.7562 10.9947C36.0685 10.9947 36.3786 10.8964 36.6437 10.703C37.1129 10.3606 37.3434 9.79137 37.2453 9.2174L36.8937 7.15871L38.383 5.70076C38.7983 5.29427 38.9449 4.69765 38.7657 4.14386C38.5866 3.58991 38.1188 3.19381 37.5449 3.11002L35.4867 2.80957L34.5662 0.936566C34.3096 0.414333 33.7899 0.0899048 33.21 0.0899048C32.6301 0.0899048 32.1105 0.414333 31.8538 0.936566L30.9333 2.80957L28.8752 3.11002C28.3013 3.19373 27.8335 3.58983 27.6543 4.14378C27.4751 4.69756 27.6217 5.29427 28.037 5.70076L29.5263 7.15871ZM28.8234 4.5253C28.8397 4.47472 28.8947 4.35468 29.052 4.3317L31.2041 4.01757C31.5458 3.96781 31.841 3.75254 31.9936 3.4417L32.9561 1.48302C33.0265 1.33992 33.1572 1.32451 33.21 1.32451C33.2628 1.32451 33.3937 1.33992 33.4639 1.48302L34.4265 3.44178C34.5793 3.75254 34.8744 3.96789 35.2157 4.01757L37.3681 4.3317C37.5253 4.35468 37.5804 4.4748 37.5967 4.5253C37.613 4.57588 37.6388 4.70539 37.525 4.81677L35.9675 6.34154C35.7206 6.58342 35.6079 6.93166 35.6661 7.2733L36.0338 9.42608C36.0606 9.58344 35.9639 9.67307 35.9211 9.70429C35.8783 9.7356 35.7635 9.80027 35.6228 9.72588L33.6978 8.7095C33.545 8.62885 33.3774 8.58848 33.2099 8.58848C33.0423 8.58848 32.8748 8.62885 32.7222 8.70942L30.7971 9.72588C30.6565 9.80027 30.5416 9.73543 30.4988 9.70429C30.456 9.67299 30.3593 9.58344 30.3861 9.42608L30.7538 7.27347C30.8122 6.9319 30.6995 6.58358 30.4524 6.34146L28.8949 4.81677C28.7811 4.70539 28.807 4.5758 28.8234 4.5253Z" fill="black"/>
  </svg>
  <svg width="48" height="36" viewBox="0 0 48 36" fill="none" x="180" y="0" xmlns="http://www.w3.org/2000/svg">
    <path d="M12.9997 21.8187C15.4936 21.8187 17.5063 20.7019 17.5063 17.748V17.4058C17.5063 15.9469 16.7406 15.1544 15.6895 14.7582C16.5802 14.3438 17.061 13.1189 17.061 11.8043C17.061 9.3726 15.3512 8.54424 13.0887 8.54424C10.025 8.54424 9.02781 10.3631 9.02781 11.7681C9.02781 12.6327 9.18784 12.903 10.4703 12.903C11.5034 12.903 11.7707 12.4887 11.7707 11.8762C11.7707 11.1737 12.216 10.9578 13.0887 10.9578C13.8193 10.9578 14.4071 11.21 14.4071 12.2546C14.4071 13.7136 13.6944 13.8036 13.0177 13.8036C12.412 13.8036 12.216 14.3438 12.216 14.8845C12.216 15.4247 12.412 15.965 13.0177 15.965C13.9973 15.965 14.7279 16.199 14.7279 17.4058V17.748C14.7279 18.9189 14.3001 19.3692 13.0891 19.3692C12.2874 19.3692 11.5038 19.171 11.5038 18.3245C11.5038 17.6399 11.2185 17.3877 10.0788 17.3877C9.09886 17.3877 8.76048 17.604 8.76048 18.4145C8.76048 19.9276 9.93601 21.8187 12.9997 21.8187Z" fill="#999999"/>
    <path d="M24.0256 10.9938C24.8628 10.9938 25.5754 11.3541 25.5754 12.0384C25.5754 12.8667 26.2522 13.0648 27.0183 13.0648C27.9089 13.0648 28.3187 12.7949 28.3187 11.9302C28.3187 10.4354 27.1252 8.54424 24.115 8.54424C21.5497 8.54424 19.5725 9.69698 19.5725 12.7949V17.568C19.5725 20.6659 21.4962 21.8187 23.9546 21.8187C26.4126 21.8187 28.3187 20.6659 28.3187 17.568V17.4058C28.3187 14.5242 26.6085 13.6236 24.5779 13.6236C23.7231 13.6236 22.9215 13.7854 22.3513 14.4157V12.7949C22.3513 11.5518 22.975 10.9938 24.0256 10.9938ZM23.9366 15.7847C24.9521 15.7847 25.5399 16.289 25.5399 17.604V17.7661C25.5399 19.0089 24.9521 19.5491 23.9546 19.5491C22.957 19.5491 22.3513 19.0089 22.3513 17.7661V17.4418C22.3513 16.2531 22.975 15.7847 23.9366 15.7847Z" fill="#999999"/>
    <path d="M34.8559 16.1091C35.4078 16.1091 35.7465 15.7306 35.7465 15.1904C35.7465 14.632 35.4078 14.2898 34.8559 14.2898C34.2857 14.2898 33.9473 14.632 33.9473 15.1904C33.9473 15.7306 34.2857 16.1091 34.8559 16.1091Z" fill="#999999"/>
    <path d="M34.838 21.8187C37.296 21.8187 39.2197 20.6659 39.2197 17.5677V12.7949C39.2197 9.69661 37.296 8.54424 34.838 8.54424C32.3796 8.54424 30.4738 9.69661 30.4738 12.7949V17.5677C30.4738 20.6659 32.3796 21.8187 34.838 21.8187ZM33.2526 12.7949C33.2526 11.5522 33.8404 10.9938 34.838 10.9938C35.8355 10.9938 36.4409 11.5522 36.4409 12.7949V17.568C36.4409 18.8108 35.8355 19.3692 34.838 19.3692C33.8404 19.3692 33.2526 18.8108 33.2526 17.568V12.7949Z" fill="#999999"/>
    <path d="M42.5953 8.53166C44.9215 8.53166 46.8141 6.61796 46.8141 4.26583C46.8141 1.9137 44.9215 0 42.5953 0C40.2688 0 38.3766 1.9137 38.3766 4.26583C38.3766 6.61796 40.2688 8.53166 42.5953 8.53166ZM42.5953 2.84389C43.3706 2.84389 44.0016 3.48191 44.0016 4.26583C44.0016 5.04975 43.3706 5.68777 42.5953 5.68777C41.8197 5.68777 41.1891 5.04975 41.1891 4.26583C41.1891 3.48191 41.8197 2.84389 42.5953 2.84389Z" fill="#999999"/>
    <path d="M43.767 13.888C43.1272 13.4433 42.2516 13.6066 41.8114 14.2539C41.3712 14.9008 41.5331 15.7862 42.1729 16.2312C43.548 17.1877 45.1875 18.7215 45.1875 20.5956C45.1875 22.296 43.7867 24.0575 41.2427 25.5565C38.461 27.195 34.4817 28.4129 30.0381 28.9851C29.2676 29.0843 28.7227 29.7964 28.8208 30.5755C28.9113 31.2935 29.5166 31.8178 30.2139 31.8178C30.2732 31.8178 30.3333 31.8141 30.3937 31.8064C35.2724 31.178 39.5134 29.8664 42.6585 28.0134C46.1528 25.9549 48 23.3899 48 20.5956C48 18.1338 46.5363 15.8143 43.767 13.888Z" fill="#999999"/>
    <path d="M21.2442 25.989C20.6953 25.4336 19.8047 25.4336 19.2557 25.989C18.7064 26.5441 18.7064 27.4446 19.2557 27.9997L20.4803 29.2384C15.984 28.9144 11.8531 27.9716 8.59642 26.503C4.92077 24.8448 2.8125 22.6919 2.8125 20.5956C2.8125 18.9222 4.17699 17.1829 6.65441 15.6981C7.32274 15.2974 7.5432 14.4253 7.14733 13.7499C6.75109 13.0741 5.88866 12.8512 5.22033 13.2515C0.905638 15.8377 0 18.6727 0 20.5956C0 23.9127 2.64624 26.9329 7.45092 29.1002C11.1024 30.747 15.7221 31.7853 20.7085 32.1034L19.2557 33.5727C18.7064 34.1278 18.7064 35.0283 19.2557 35.5834C19.5304 35.8611 19.89 36 20.25 36C20.61 36 20.9699 35.8611 21.2442 35.5834L24.9942 31.7916C25.5435 31.2365 25.5435 30.3363 24.9942 29.7808L21.2442 25.989Z" fill="#999999"/>
  </svg>
</svg>